<svg xmlns="http://www.w3.org/2000/svg" width="20.918" height="19.989" viewBox="0 0 20.918 19.989">
  <path id="Icon_zocial-linkedin" data-name="Icon zocial-linkedin" d="M-.18,2.538A2.174,2.174,0,0,1,.527.872,2.593,2.593,0,0,1,2.364.216a2.515,2.515,0,0,1,1.8.646A2.277,2.277,0,0,1,4.868,2.6a2.126,2.126,0,0,1-.686,1.615,2.6,2.6,0,0,1-1.858.666H2.3a2.471,2.471,0,0,1-1.8-.666A2.238,2.238,0,0,1-.18,2.538ZM.082,20.2V6.717H4.565V20.2H.082Zm6.966,0h4.482V12.674a2.907,2.907,0,0,1,.162-1.09,2.928,2.928,0,0,1,.858-1.161,2.194,2.194,0,0,1,1.444-.474q2.261,0,2.261,3.049V20.2h4.482V12.472a6.5,6.5,0,0,0-1.413-4.533,4.821,4.821,0,0,0-3.735-1.545,4.582,4.582,0,0,0-4.058,2.241v.04h-.02l.02-.04V6.717H7.048q.04.646.04,4.018T7.048,20.2Z" transform="translate(0.18 -0.216)" fill="#86888b"/>
</svg>
