<svg xmlns="http://www.w3.org/2000/svg" width="23.296" height="18.921" viewBox="0 0 23.296 18.921">
  <path id="Icon_awesome-twitter" data-name="Icon awesome-twitter" d="M20.9,8.1c.015.207.015.414.015.621A13.491,13.491,0,0,1,7.332,22.3,13.492,13.492,0,0,1,0,20.158a9.877,9.877,0,0,0,1.153.059,9.562,9.562,0,0,0,5.928-2.04,4.783,4.783,0,0,1-4.464-3.311,6.021,6.021,0,0,0,.9.074,5.05,5.05,0,0,0,1.256-.163A4.775,4.775,0,0,1,.946,10.092v-.059a4.808,4.808,0,0,0,2.158.606A4.782,4.782,0,0,1,1.626,4.253a13.571,13.571,0,0,0,9.845,5,5.39,5.39,0,0,1-.118-1.094,4.779,4.779,0,0,1,8.263-3.267,9.4,9.4,0,0,0,3.03-1.153,4.762,4.762,0,0,1-2.1,2.631A9.572,9.572,0,0,0,23.3,5.628,10.263,10.263,0,0,1,20.9,8.1Z" transform="translate(0 -3.381)" fill="#86888b"/>
</svg>
