<svg xmlns="http://www.w3.org/2000/svg" width="21.137" height="25.154" viewBox="0 0 21.137 25.154">
  <path id="Icon_awesome-apple" data-name="Icon awesome-apple" d="M17.954,15.542a5.242,5.242,0,0,1,2.808-4.762,6.034,6.034,0,0,0-4.756-2.5c-1.994-.157-4.172,1.162-4.97,1.162-.842,0-2.774-1.106-4.29-1.106-3.134.051-6.464,2.5-6.464,7.48a14,14,0,0,0,.809,4.56C1.809,22.433,4.4,27.487,7.11,27.4c1.415-.034,2.415-1.005,4.257-1.005,1.786,0,2.712,1.005,4.29,1.005,2.729-.039,5.077-4.633,5.762-6.7a5.567,5.567,0,0,1-3.465-5.161ZM14.775,6.321A5.289,5.289,0,0,0,16.123,2.25,5.955,5.955,0,0,0,12.31,4.21a5.372,5.372,0,0,0-1.438,4.038,4.716,4.716,0,0,0,3.9-1.926Z" transform="translate(-0.281 -2.25)"/>
</svg>
